<svg xmlns="http://www.w3.org/2000/svg"  viewBox="0 0 48 48" width="48px" height="48px"><path d="M 23.980469 5.6230469 C 22.32562 5.6230469 20.485569 5.6314474 18.689453 5.6464844 A 1.50015 1.50015 0 1 0 18.714844 8.6464844 C 20.502728 8.6315184 22.335317 8.6230469 23.980469 8.6230469 C 29.106059 8.622084 32.628915 8.6625509 37.470703 8.8261719 C 38.000406 9.2006251 39.079757 10.180072 39.974609 11.242188 C 40.459337 11.817517 40.894894 12.395414 41.183594 12.839844 C 41.472293 13.284274 41.518559 13.820967 41.5 13.267578 L 41.5 14.847656 C 41.5 15.412844 41.212609 16.036462 40.748047 16.507812 C 40.283485 16.979164 39.67587 17.226564 39.318359 17.226562 C 37.968162 17.226562 36.962891 16.292043 36.962891 15.070312 L 33.962891 15.070312 C 33.962891 16.321956 33.013378 17.226562 31.664062 17.226562 C 30.315223 17.226562 29.423828 16.347627 29.423828 15.070312 A 1.50015 1.50015 0 0 0 26.423828 15.070312 C 26.423828 16.270264 25.370204 17.226562 24.019531 17.226562 L 23.980469 17.226562 C 22.630271 17.226562 21.578125 16.26981 21.578125 15.070312 A 1.50015 1.50015 0 0 0 18.578125 15.070312 C 18.578125 16.349009 17.686611 17.226564 16.335938 17.226562 C 14.985739 17.226562 14.039063 16.321044 14.039062 15.070312 A 1.50015 1.50015 0 0 0 11.039062 15.070312 C 11.039062 16.293453 10.032314 17.226562 8.6816406 17.226562 C 8.3233347 17.226562 7.716575 16.97914 7.2519531 16.507812 C 6.7873303 16.036485 6.5 15.412844 6.5 14.847656 L 6.5 13.265625 C 6.482777 13.812312 6.527016 13.278105 6.8125 12.833984 C 7.0979842 12.389868 7.5295542 11.813127 8.0097656 11.238281 C 8.9005515 10.17195 9.9855324 9.1815453 10.507812 8.8144531 C 11.015426 8.7845389 11.834587 8.7490001 13.115234 8.7226562 A 1.5003255 1.5003255 0 1 0 13.052734 5.7226562 C 11.536181 5.7538532 10.424065 5.7859912 9.8066406 5.8398438 A 1.50015 1.50015 0 0 0 9.171875 6.0449219 C 7.9617323 6.7631248 6.7928584 8.0146445 5.7070312 9.3144531 C 5.1641177 9.9643575 4.6731095 10.61349 4.2890625 11.210938 C 3.9050155 11.808383 3.5327229 12.131235 3.5 13.169922 A 1.50015 1.50015 0 0 0 3.5 13.21875 L 3.5 14.847656 C 3.5 16.347469 4.1768562 17.661359 5.1152344 18.613281 C 5.3968588 18.89897 5.7136758 19.145817 6.0449219 19.369141 C 5.9271242 20.866744 5.8569924 22.283924 5.8359375 23.353516 A 1.50015 1.50015 0 0 0 5.8359375 23.384766 L 5.8359375 23.390625 C 5.8319675 24.033134 5.8291619 24.562888 5.8261719 25.294922 A 1.50015 1.50015 0 0 0 5.8261719 25.314453 C 5.8426029 27.161467 5.7462243 30.298517 5.9101562 33.271484 C 5.9921223 34.757968 6.1362706 36.207935 6.4160156 37.494141 C 6.6957606 38.780347 7.0501251 39.932841 7.9394531 40.839844 A 1.50015 1.50015 0 0 0 8.6699219 41.25 C 9.4380334 41.42919 10.313311 41.57932 11.283203 41.708984 A 1.50015 1.50015 0 1 0 11.681641 38.736328 C 11.01771 38.647567 10.49072 38.541024 9.9628906 38.435547 C 9.7907282 38.167392 9.5357457 37.720263 9.3476562 36.855469 C 9.1235576 35.825112 8.9812057 34.502188 8.9042969 33.107422 C 8.7508634 30.324855 8.8431512 27.282064 8.8261719 25.306641 L 8.8261719 25.292969 C 8.8261588 25.291469 8.826185 25.288609 8.8261719 25.287109 C 8.8291219 24.562638 8.8319875 24.036817 8.8359375 23.400391 C 8.8363062 23.396852 8.8358878 23.393182 8.8359375 23.390625 C 8.8533093 22.522372 8.9090894 21.396461 8.9902344 20.210938 C 10.357528 20.130878 11.607018 19.531544 12.529297 18.607422 C 13.504422 19.597858 14.853437 20.226563 16.335938 20.226562 C 17.813036 20.226562 19.145137 19.596846 20.105469 18.609375 C 21.10912 19.602894 22.490232 20.226563 23.980469 20.226562 L 24.019531 20.226562 C 25.510485 20.226562 26.892116 19.60386 27.896484 18.609375 C 28.856581 19.59692 30.18705 20.226563 31.664062 20.226562 C 33.146955 20.226562 34.497255 19.598876 35.472656 18.607422 C 36.463999 19.600456 37.830748 20.226562 39.318359 20.226562 C 40.711849 20.226562 41.946578 19.56518 42.884766 18.613281 C 43.822956 17.66138 44.5 16.347469 44.5 14.847656 L 44.5 13.21875 A 1.50015 1.50015 0 0 0 44.5 13.167969 C 44.464941 12.122579 44.087113 11.802211 43.699219 11.205078 C 43.311325 10.607946 42.816679 9.9599659 42.269531 9.3105469 C 41.175236 8.0117087 39.999729 6.7608215 38.794922 6.0449219 A 1.50015 1.50015 0 0 0 38.080078 5.8359375 C 32.910756 5.6542937 29.309419 5.6220458 23.980469 5.6230469 z M 18.103516 23.123047 C 17.613516 23.123047 15.653156 23.125844 14.285156 26.964844 L 12.818359 32.232422 C 11.730359 36.149422 13.165031 36.245047 14.957031 36.248047 C 17.615031 36.149047 19.087891 34.219063 19.087891 32.289062 C 20.557891 32.530062 22.274234 32.652344 23.990234 32.652344 C 25.706234 32.652344 27.423531 32.531062 28.894531 32.289062 C 28.894531 34.218063 30.365438 36.150047 33.023438 36.248047 C 34.814438 36.246047 36.251109 36.151422 35.162109 32.232422 L 33.693359 26.964844 C 32.326359 23.125844 30.364047 23.125 29.873047 23.125 L 29.873047 23.126953 L 29.871094 23.126953 C 28.833094 23.129953 27.912531 23.125094 26.769531 24.371094 C 25.869531 24.277094 24.929281 24.229469 23.988281 24.230469 C 23.047281 24.229469 22.107031 24.277094 21.207031 24.371094 C 20.066031 23.124094 19.141516 23.125047 18.103516 23.123047 z M 40.621094 23.203125 A 1.50015 1.50015 0 0 0 39.152344 24.732422 C 39.153342 24.91415 39.153252 25.104893 39.154297 25.3125 C 39.137837 27.287025 39.229732 30.326984 39.076172 33.109375 C 38.999202 34.504055 38.858935 35.829028 38.634766 36.859375 C 38.450788 37.704988 38.204605 38.126122 38.03125 38.404297 C 35.003264 39.018321 29.552336 39.375068 23.990234 39.376953 C 22.219573 39.375963 20.451385 39.34449 18.761719 39.28125 A 1.50015 1.50015 0 1 0 18.650391 42.279297 C 20.380725 42.344057 22.182943 42.375943 23.988281 42.376953 A 1.50015 1.50015 0 0 0 23.990234 42.376953 A 1.50015 1.50015 0 0 0 23.992188 42.376953 C 29.950297 42.374953 35.81592 42.067169 39.310547 41.253906 A 1.50015 1.50015 0 0 0 40.042969 40.841797 C 40.932254 39.934838 41.286575 38.782278 41.566406 37.496094 C 41.846237 36.20991 41.990234 34.761836 42.072266 33.275391 C 42.23633 30.302501 42.138347 27.165278 42.154297 25.318359 A 1.50015 1.50015 0 0 0 42.154297 25.296875 C 42.153297 25.088482 42.153392 24.897115 42.152344 24.714844 A 1.50015 1.50015 0 0 0 40.621094 23.203125 z M 23.986328 25.730469 C 23.986328 25.730469 26.966953 28.468406 27.501953 29.441406 L 25.623047 29.363281 L 25.623047 31.251953 C 25.623047 31.331953 22.34375 31.331953 22.34375 31.251953 L 22.34375 29.363281 L 20.470703 29.441406 C 21.005703 28.468406 23.984328 25.733469 23.986328 25.730469 z"/></svg>